<?xml version="1.0" encoding="UTF-8" standalone="no"?>
<!-- Created with Inkscape (http://www.inkscape.org/) -->

<svg
   xmlns:dc="http://purl.org/dc/elements/1.1/"
   xmlns:cc="http://creativecommons.org/ns#"
   xmlns:rdf="http://www.w3.org/1999/02/22-rdf-syntax-ns#"
   xmlns:svg="http://www.w3.org/2000/svg"
   xmlns="http://www.w3.org/2000/svg"
   xmlns:sodipodi="http://sodipodi.sourceforge.net/DTD/sodipodi-0.dtd"
   xmlns:inkscape="http://www.inkscape.org/namespaces/inkscape"
   width="1000"
   height="351.87399"
   viewBox="0 0 264.58333 93.099997"
   version="1.1"
   id="svg1018"
   inkscape:version="0.92.4 (5da689c313, 2019-01-14)"
   sodipodi:docname="logo.svg">
  <defs
     id="defs1012" />
  <sodipodi:namedview
     id="base"
     pagecolor="#ffffff"
     bordercolor="#666666"
     borderopacity="1.0"
     inkscape:pageopacity="0.0"
     inkscape:pageshadow="2"
     inkscape:zoom="0.35"
     inkscape:cx="-147.14286"
     inkscape:cy="560"
     inkscape:document-units="mm"
     inkscape:current-layer="layer1"
     showgrid="false"
     units="px"
     inkscape:window-width="1600"
     inkscape:window-height="822"
     inkscape:window-x="0"
     inkscape:window-y="27"
     inkscape:window-maximized="1" />
  <metadata
     id="metadata1015">
    <rdf:RDF>
      <cc:Work
         rdf:about="">
        <dc:format>image/svg+xml</dc:format>
        <dc:type
           rdf:resource="http://purl.org/dc/dcmitype/StillImage" />
        <dc:title></dc:title>
      </cc:Work>
    </rdf:RDF>
  </metadata>
  <g
     inkscape:label="Layer 1"
     inkscape:groupmode="layer"
     id="layer1"
     transform="translate(0,-203.89998)">
    <g
       transform="matrix(0.06548219,0,0,0.06548219,-31.400875,479.97743)"
       id="g884"
       inkscape:export-filename="/home/avronr/Code/studevsoc-website/sds-web/static/beta/img/logo.svg.png"
       inkscape:export-xdpi="96"
       inkscape:export-ydpi="96">
      <g
         id="g5273"
         transform="matrix(0.90898553,0,0,0.90898553,2645.3462,1105.2302)">
        <g
           id="g5281"
           transform="matrix(1.0045887,0,0,1.0045887,10.933515,-103.47392)">
          <rect
             style="fill:#cdd6da;fill-opacity:1;stroke:none;stroke-width:2.61342001;stroke-miterlimit:4;stroke-dasharray:none;stroke-opacity:1"
             id="rect4300"
             width="1494.3191"
             height="1556.9755"
             x="-2382.6707"
             y="-5724.3677"
             ry="69.032036" />
          <rect
             style="fill:#253137;fill-opacity:1;stroke:none;stroke-width:3.08797002;stroke-miterlimit:4;stroke-dasharray:none;stroke-opacity:1"
             id="rect5119"
             width="1346.9041"
             height="1271.2526"
             x="-2309.2849"
             y="-5516.6567"
             ry="17.360941" />
          <text
             xml:space="preserve"
             style="font-style:normal;font-variant:normal;font-weight:normal;font-stretch:normal;font-size:575.88598633px;line-height:1.25;font-family:'Antykwa Poltawskiego';-inkscape-font-specification:'Antykwa Poltawskiego, Normal';font-variant-ligatures:normal;font-variant-caps:normal;font-variant-numeric:normal;font-feature-settings:normal;text-align:start;letter-spacing:0px;word-spacing:0px;writing-mode:lr-tb;text-anchor:start;opacity:0.98999999;fill:#00b588;fill-opacity:1;stroke:#00b588;stroke-width:57.19430161;stroke-miterlimit:4;stroke-dasharray:none;stroke-opacity:1"
             x="-1973.9865"
             y="-4763.5425"
             id="text5125"><tspan
               sodipodi:role="line"
               id="tspan5123"
               x="-1973.9865"
               y="-4763.5425"
               style="font-style:normal;font-variant:normal;font-weight:normal;font-stretch:normal;font-size:575.88598633px;font-family:'Antykwa Poltawskiego';-inkscape-font-specification:'Antykwa Poltawskiego, Normal';font-variant-ligatures:normal;font-variant-caps:normal;font-variant-numeric:normal;font-feature-settings:normal;text-align:start;writing-mode:lr-tb;text-anchor:start;fill:#00b588;fill-opacity:1;stroke:#00b588;stroke-width:57.19430161;stroke-miterlimit:4;stroke-dasharray:none;stroke-opacity:1">&gt;_</tspan></text>
          <circle
             style="opacity:0.98999999;fill:#92a3ab;fill-opacity:1;stroke:none;stroke-width:34.50479889;stroke-miterlimit:4.0999999;stroke-dasharray:none;stroke-opacity:1"
             id="path5147"
             cx="-2235.2764"
             cy="-5620.0718"
             r="58.870949" />
          <circle
             r="58.870949"
             cy="-5620.0718"
             cx="-2089.6165"
             id="circle5149"
             style="opacity:0.98999999;fill:#92a3ab;fill-opacity:1;stroke:none;stroke-width:34.50479889;stroke-miterlimit:4.0999999;stroke-dasharray:none;stroke-opacity:1" />
        </g>
      </g>
      <g
         id="g846">
        <g
           id="g796">
          <path
             style="font-style:normal;font-variant:normal;font-weight:normal;font-stretch:normal;font-size:266.66598511px;line-height:1.25;font-family:sans-serif;-inkscape-font-specification:'sans-serif, Normal';font-variant-ligatures:normal;font-variant-caps:normal;font-variant-numeric:normal;font-feature-settings:normal;text-align:start;letter-spacing:0px;word-spacing:0px;writing-mode:lr-tb;text-anchor:start;fill:#000000;fill-opacity:1;stroke:none;stroke-width:1.46750998"
             id="path476"
             d="m 2180.063,-4041.1613 v 37.6431 q -21.9743,-10.5096 -41.4646,-15.6688 -19.4904,-5.1591 -37.6431,-5.1591 -31.5284,0 -48.7258,12.2292 -17.0062,12.2292 -17.0062,34.7769 0,18.917 11.2738,28.6622 11.4649,9.5541 43.1844,15.4775 l 23.3119,4.7771 q 43.1845,8.2165 63.6302,29.0443 20.6368,20.6369 20.6368,55.4136 0,41.4648 -27.8979,62.8659 -27.7068,21.4012 -81.4007,21.4012 -20.2547,0 -43.1845,-4.586 -22.7386,-4.586 -47.1971,-13.5668 v -39.7449 q 23.503,13.1846 46.0507,19.8724 22.5476,6.6879 44.3309,6.6879 33.0571,0 51.0187,-12.9936 17.9617,-12.9935 17.9617,-37.0697 0,-21.019 -12.9936,-32.8661 -12.8024,-11.847 -42.229,-17.7707 l -23.503,-4.5858 q -43.1844,-8.5987 -62.4836,-26.9426 -19.2993,-18.3437 -19.2993,-51.0187 0,-37.8341 26.5604,-59.6174 26.7514,-21.7833 73.5663,-21.7833 20.0636,0 40.8915,3.6305 20.8278,3.6306 42.6111,10.8917 z"
             inkscape:connector-curvature="0" />
          <path
             style="font-style:normal;font-variant:normal;font-weight:normal;font-stretch:normal;font-size:266.66598511px;line-height:1.25;font-family:sans-serif;-inkscape-font-specification:'sans-serif, Normal';font-variant-ligatures:normal;font-variant-caps:normal;font-variant-numeric:normal;font-feature-settings:normal;text-align:start;letter-spacing:0px;word-spacing:0px;writing-mode:lr-tb;text-anchor:start;fill:#000000;fill-opacity:1;stroke:none;stroke-width:1.46750998"
             id="path478"
             d="m 2217.8972,-4050.5243 h 241.3359 v 32.4839 h -101.2732 v 252.8007 h -38.7895 v -252.8007 h -101.2732 z"
             inkscape:connector-curvature="0" />
          <path
             style="font-style:normal;font-variant:normal;font-weight:normal;font-stretch:normal;font-size:266.66598511px;line-height:1.25;font-family:sans-serif;-inkscape-font-specification:'sans-serif, Normal';font-variant-ligatures:normal;font-variant-caps:normal;font-variant-numeric:normal;font-feature-settings:normal;text-align:start;letter-spacing:0px;word-spacing:0px;writing-mode:lr-tb;text-anchor:start;fill:#000000;fill-opacity:1;stroke:none;stroke-width:1.46750998"
             id="path480"
             d="m 2492.0991,-4050.5243 h 38.7896 v 173.311 q 0,45.8595 16.6241,66.1141 16.624,20.0636 53.8849,20.0636 37.0698,0 53.6939,-20.0636 16.6241,-20.2546 16.6241,-66.1141 v -173.311 h 38.7896 v 178.088 q 0,55.7958 -27.7068,84.2669 -27.5158,28.4712 -81.4008,28.4712 -54.076,0 -81.7828,-28.4712 -27.5158,-28.4711 -27.5158,-84.2669 z"
             inkscape:connector-curvature="0" />
          <path
             style="font-style:normal;font-variant:normal;font-weight:normal;font-stretch:normal;font-size:266.66598511px;line-height:1.25;font-family:sans-serif;-inkscape-font-specification:'sans-serif, Normal';font-variant-ligatures:normal;font-variant-caps:normal;font-variant-numeric:normal;font-feature-settings:normal;text-align:start;letter-spacing:0px;word-spacing:0px;writing-mode:lr-tb;text-anchor:start;fill:#000000;fill-opacity:1;stroke:none;stroke-width:1.46750998"
             id="path482"
             d="m 2821.5236,-4018.8048 v 221.8456 h 46.6239 q 59.0442,0 86.3688,-26.7514 27.5158,-26.7513 27.5158,-84.4579 0,-57.3245 -27.5158,-83.8849 -27.3246,-26.7514 -86.3688,-26.7514 z m -38.5984,-31.7195 h 79.2988 q 82.9293,0 121.7189,34.5857 38.7895,34.3947 38.7895,107.7701 0,73.7573 -38.9806,108.3431 -38.9806,34.5857 -121.5278,34.5857 h -79.2988 z"
             inkscape:connector-curvature="0" />
          <path
             style="font-style:normal;font-variant:normal;font-weight:normal;font-stretch:normal;font-size:266.66598511px;line-height:1.25;font-family:sans-serif;-inkscape-font-specification:'sans-serif, Normal';font-variant-ligatures:normal;font-variant-caps:normal;font-variant-numeric:normal;font-feature-settings:normal;text-align:start;letter-spacing:0px;word-spacing:0px;writing-mode:lr-tb;text-anchor:start;fill:#000000;fill-opacity:1;stroke:none;stroke-width:1.46750998"
             id="path484"
             d="m 3084.2607,-4050.5243 h 180.3809 v 32.4839 h -141.7825 v 84.458 h 135.859 v 32.4839 h -135.859 v 103.375 h 145.222 v 32.4838 h -183.8204 z"
             inkscape:connector-curvature="0" />
          <path
             style="font-style:normal;font-variant:normal;font-weight:normal;font-stretch:normal;font-size:266.66598511px;line-height:1.25;font-family:sans-serif;-inkscape-font-specification:'sans-serif, Normal';font-variant-ligatures:normal;font-variant-caps:normal;font-variant-numeric:normal;font-feature-settings:normal;text-align:start;letter-spacing:0px;word-spacing:0px;writing-mode:lr-tb;text-anchor:start;fill:#000000;fill-opacity:1;stroke:none;stroke-width:1.46750998"
             id="path486"
             d="m 3331.5201,-4050.5243 h 51.9742 l 126.4959,238.6608 v -238.6608 h 37.452 v 285.2846 h -51.9742 l -126.4959,-238.6606 v 238.6606 h -37.452 z"
             inkscape:connector-curvature="0" />
          <path
             style="font-style:normal;font-variant:normal;font-weight:normal;font-stretch:normal;font-size:266.66598511px;line-height:1.25;font-family:sans-serif;-inkscape-font-specification:'sans-serif, Normal';font-variant-ligatures:normal;font-variant-caps:normal;font-variant-numeric:normal;font-feature-settings:normal;text-align:start;letter-spacing:0px;word-spacing:0px;writing-mode:lr-tb;text-anchor:start;fill:#000000;fill-opacity:1;stroke:none;stroke-width:1.46750998"
             id="path488"
             d="m 3584.703,-4050.5243 h 241.336 v 32.4839 h -101.2732 v 252.8007 h -38.7896 v -252.8007 H 3584.703 Z"
             inkscape:connector-curvature="0" />
        </g>
        <g
           id="g808">
          <path
             style="font-style:normal;font-variant:normal;font-weight:normal;font-stretch:normal;font-size:266.66598511px;line-height:1.25;font-family:sans-serif;-inkscape-font-specification:'sans-serif, Normal';font-variant-ligatures:normal;font-variant-caps:normal;font-variant-numeric:normal;font-feature-settings:normal;text-align:start;letter-spacing:0px;word-spacing:0px;writing-mode:lr-tb;text-anchor:start;fill:#000000;fill-opacity:1;stroke:none;stroke-width:1.47019994"
             id="path491"
             d="m 2035.1028,-3598.2066 v 222.2517 h 46.7092 q 59.1522,0 86.5269,-26.8003 27.5661,-26.8004 27.5661,-84.6126 0,-57.4294 -27.5661,-84.0385 -27.3747,-26.8003 -86.5269,-26.8003 z m -38.6691,-31.7775 h 79.4439 q 83.0812,0 121.9417,34.6489 38.8606,34.4578 38.8606,107.9674 0,73.8923 -39.052,108.5415 -39.052,34.6489 -121.7503,34.6489 h -79.4439 z"
             inkscape:connector-curvature="0" />
          <path
             style="font-style:normal;font-variant:normal;font-weight:normal;font-stretch:normal;font-size:266.66598511px;line-height:1.25;font-family:sans-serif;-inkscape-font-specification:'sans-serif, Normal';font-variant-ligatures:normal;font-variant-caps:normal;font-variant-numeric:normal;font-feature-settings:normal;text-align:start;letter-spacing:0px;word-spacing:0px;writing-mode:lr-tb;text-anchor:start;fill:#000000;fill-opacity:1;stroke:none;stroke-width:1.47019994"
             id="path493"
             d="m 2298.3207,-3629.9841 h 180.7111 v 32.5433 h -142.042 v 84.6126 h 136.1077 v 32.5434 h -136.1077 v 103.5642 h 145.4878 v 32.5432 h -184.1569 z"
             inkscape:connector-curvature="0" />
          <path
             style="font-style:normal;font-variant:normal;font-weight:normal;font-stretch:normal;font-size:266.66598511px;line-height:1.25;font-family:sans-serif;-inkscape-font-specification:'sans-serif, Normal';font-variant-ligatures:normal;font-variant-caps:normal;font-variant-numeric:normal;font-feature-settings:normal;text-align:start;letter-spacing:0px;word-spacing:0px;writing-mode:lr-tb;text-anchor:start;fill:#000000;fill-opacity:1;stroke:none;stroke-width:1.47019994"
             id="path495"
             d="m 2619.7338,-3344.1774 -109.1159,-285.8067 h 40.392 l 90.547,240.6291 90.7384,-240.6291 h 40.2006 l -108.9244,285.8067 z"
             inkscape:connector-curvature="0" />
          <path
             style="font-style:normal;font-variant:normal;font-weight:normal;font-stretch:normal;font-size:266.66598511px;line-height:1.25;font-family:sans-serif;-inkscape-font-specification:'sans-serif, Normal';font-variant-ligatures:normal;font-variant-caps:normal;font-variant-numeric:normal;font-feature-settings:normal;text-align:start;letter-spacing:0px;word-spacing:0px;writing-mode:lr-tb;text-anchor:start;fill:#000000;fill-opacity:1;stroke:none;stroke-width:1.47019994"
             id="path497"
             d="m 2814.2279,-3629.9841 h 180.7111 v 32.5433 h -142.042 v 84.6126 h 136.1076 v 32.5434 H 2852.897 v 103.5642 h 145.4877 v 32.5432 h -184.1568 z"
             inkscape:connector-curvature="0" />
          <path
             style="font-style:normal;font-variant:normal;font-weight:normal;font-stretch:normal;font-size:266.66598511px;line-height:1.25;font-family:sans-serif;-inkscape-font-specification:'sans-serif, Normal';font-variant-ligatures:normal;font-variant-caps:normal;font-variant-numeric:normal;font-feature-settings:normal;text-align:start;letter-spacing:0px;word-spacing:0px;writing-mode:lr-tb;text-anchor:start;fill:#000000;fill-opacity:1;stroke:none;stroke-width:1.47019994"
             id="path499"
             d="m 3061.94,-3629.9841 h 38.6691 v 253.2635 h 139.1705 v 32.5432 H 3061.94 Z"
             inkscape:connector-curvature="0" />
          <path
             style="font-style:normal;font-variant:normal;font-weight:normal;font-stretch:normal;font-size:266.66598511px;line-height:1.25;font-family:sans-serif;-inkscape-font-specification:'sans-serif, Normal';font-variant-ligatures:normal;font-variant-caps:normal;font-variant-numeric:normal;font-feature-settings:normal;text-align:start;letter-spacing:0px;word-spacing:0px;writing-mode:lr-tb;text-anchor:start;fill:#000000;fill-opacity:1;stroke:none;stroke-width:1.47019994"
             id="path501"
             d="m 3382.3959,-3603.7581 q -42.1149,0 -67.001,31.3948 -24.6946,31.3947 -24.6946,85.5698 0,53.9835 24.6946,85.3783 24.8861,31.3947 67.001,31.3947 42.1148,0 66.618,-31.3947 24.6946,-31.3948 24.6946,-85.3783 0,-54.1751 -24.6946,-85.5698 -24.5032,-31.3948 -66.618,-31.3948 z m 0,-31.3947 q 60.1094,0 96.0984,40.3921 35.9891,40.2005 35.9891,107.9672 0,67.5751 -35.9891,107.9672 -35.989,40.2005 -96.0984,40.2005 -60.3009,0 -96.4814,-40.2005 -35.9891,-40.2006 -35.9891,-107.9672 0,-67.7667 35.9891,-107.9672 36.1805,-40.3921 96.4814,-40.3921 z"
             inkscape:connector-curvature="0" />
          <path
             style="font-style:normal;font-variant:normal;font-weight:normal;font-stretch:normal;font-size:266.66598511px;line-height:1.25;font-family:sans-serif;-inkscape-font-specification:'sans-serif, Normal';font-variant-ligatures:normal;font-variant-caps:normal;font-variant-numeric:normal;font-feature-settings:normal;text-align:start;letter-spacing:0px;word-spacing:0px;writing-mode:lr-tb;text-anchor:start;fill:#000000;fill-opacity:1;stroke:none;stroke-width:1.47019994"
             id="path503"
             d="m 3613.6448,-3598.2066 v 107.3929 h 48.6236 q 26.9918,0 41.732,-13.9745 14.7402,-13.9745 14.7402,-39.8176 0,-25.6518 -14.7402,-39.6263 -14.7402,-13.9745 -41.732,-13.9745 z m -38.6691,-31.7775 h 87.2927 q 48.0492,0 72.5524,21.8231 24.6946,21.6317 24.6946,63.5552 0,42.3062 -24.6946,63.938 -24.5032,21.6317 -72.5524,21.6317 h -48.6236 v 114.8587 h -38.6691 z"
             inkscape:connector-curvature="0" />
          <path
             style="font-style:normal;font-variant:normal;font-weight:normal;font-stretch:normal;font-size:266.66598511px;line-height:1.25;font-family:sans-serif;-inkscape-font-specification:'sans-serif, Normal';font-variant-ligatures:normal;font-variant-caps:normal;font-variant-numeric:normal;font-feature-settings:normal;text-align:start;letter-spacing:0px;word-spacing:0px;writing-mode:lr-tb;text-anchor:start;fill:#000000;fill-opacity:1;stroke:none;stroke-width:1.47019994"
             id="path505"
             d="m 3811.3933,-3629.9841 h 180.7111 v 32.5433 h -142.042 v 84.6126 H 3986.17 v 32.5434 h -136.1076 v 103.5642 h 145.4878 v 32.5432 h -184.1569 z"
             inkscape:connector-curvature="0" />
          <path
             style="font-style:normal;font-variant:normal;font-weight:normal;font-stretch:normal;font-size:266.66598511px;line-height:1.25;font-family:sans-serif;-inkscape-font-specification:'sans-serif, Normal';font-variant-ligatures:normal;font-variant-caps:normal;font-variant-numeric:normal;font-feature-settings:normal;text-align:start;letter-spacing:0px;word-spacing:0px;writing-mode:lr-tb;text-anchor:start;fill:#000000;fill-opacity:1;stroke:none;stroke-width:1.47019994"
             id="path507"
             d="m 4194.6386,-3478.1792 q 12.4431,4.2115 24.1204,17.9946 11.8687,13.7831 23.7374,37.9034 l 39.2434,78.1038 h -41.5405 l -36.5634,-73.318 q -14.1659,-28.7147 -27.5661,-38.0949 -13.2088,-9.3801 -36.1805,-9.3801 h -42.1149 v 120.793 h -38.6691 v -285.8067 h 87.2927 q 49.0064,0 73.1267,20.4832 24.1203,20.483 24.1203,61.8321 0,26.9919 -12.6344,44.795 -12.4431,17.8032 -36.372,24.6946 z m -96.8642,-120.0274 v 101.4587 h 48.6236 q 27.9489,0 42.1148,-12.826 14.3574,-13.0173 14.3574,-38.0949 0,-25.0774 -14.3574,-37.7118 -14.1659,-12.826 -42.1148,-12.826 z"
             inkscape:connector-curvature="0" />
          <path
             style="font-style:normal;font-variant:normal;font-weight:normal;font-stretch:normal;font-size:266.66598511px;line-height:1.25;font-family:sans-serif;-inkscape-font-specification:'sans-serif, Normal';font-variant-ligatures:normal;font-variant-caps:normal;font-variant-numeric:normal;font-feature-settings:normal;text-align:start;letter-spacing:0px;word-spacing:0px;writing-mode:lr-tb;text-anchor:start;fill:#000000;fill-opacity:1;stroke:none;stroke-width:1.47019994"
             id="path509"
             d="m 4502.843,-3620.604 v 37.712 q -22.0146,-10.5288 -41.5406,-15.6974 -19.526,-5.1687 -37.712,-5.1687 -31.5861,0 -48.8149,12.2516 -17.0374,12.2516 -17.0374,34.8406 0,18.9517 11.2944,28.7147 11.4859,9.5715 43.2635,15.5058 l 23.3546,4.7858 q 43.2635,8.2316 63.7466,29.0975 20.6746,20.6747 20.6746,55.5151 0,41.5406 -27.949,62.9809 -27.7575,21.4403 -81.5497,21.4403 -20.2917,0 -43.2635,-4.5943 -22.7803,-4.5944 -47.2835,-13.5917 v -39.8176 q 23.5461,13.2087 46.135,19.9088 22.5889,6.7001 44.412,6.7001 33.1176,0 51.1122,-13.0174 17.9945,-13.0172 17.9945,-37.1376 0,-21.0574 -13.0173,-32.9262 -12.8259,-11.8687 -42.3063,-17.8031 l -23.5461,-4.5943 q -43.2634,-8.6144 -62.598,-26.9919 -19.3346,-18.3773 -19.3346,-51.1121 0,-37.9034 26.609,-59.7265 26.8004,-21.8232 73.701,-21.8232 20.1003,0 40.9663,3.6372 20.866,3.6372 42.6892,10.9116 z"
             inkscape:connector-curvature="0" />
        </g>
        <g
           id="g817">
          <path
             style="font-style:normal;font-variant:normal;font-weight:normal;font-stretch:normal;font-size:266.66598511px;line-height:1.25;font-family:sans-serif;-inkscape-font-specification:'sans-serif, Normal';font-variant-ligatures:normal;font-variant-caps:normal;font-variant-numeric:normal;font-feature-settings:normal;text-align:start;letter-spacing:0px;word-spacing:0px;writing-mode:lr-tb;text-anchor:start;fill:#00b588;fill-opacity:1;stroke:none;stroke-width:1.46843004"
             id="path512"
             d="m 2180.1786,-3199.4144 v 37.6668 q -21.9882,-10.5162 -41.4908,-15.6786 -19.5026,-5.1624 -37.6667,-5.1624 -31.5483,0 -48.7565,12.2369 -17.017,12.2369 -17.017,34.7988 0,18.929 11.2809,28.6802 11.4722,9.5601 43.2117,15.4873 l 23.3266,4.7801 q 43.2116,8.2217 63.6702,29.0626 20.6498,20.6499 20.6498,55.4485 0,41.4909 -27.9155,62.9055 -27.7243,21.4146 -81.452,21.4146 -20.2674,0 -43.2116,-4.5889 -22.753,-4.5888 -47.2268,-13.5753 v -39.7699 q 23.5178,13.1928 46.0796,19.8849 22.5618,6.6921 44.3588,6.6921 33.0779,0 51.0509,-13.0018 17.973,-13.0016 17.973,-37.0931 0,-21.0322 -13.0017,-32.8867 -12.8106,-11.8545 -42.2556,-17.7818 l -23.5179,-4.5888 q -43.2116,-8.6041 -62.5229,-26.9595 -19.3114,-18.3553 -19.3114,-51.0508 0,-37.858 26.577,-59.655 26.7683,-21.797 73.6127,-21.797 20.0762,0 40.9172,3.6328 20.841,3.6329 42.638,10.8985 z"
             inkscape:connector-curvature="0" />
          <path
             style="font-style:normal;font-variant:normal;font-weight:normal;font-stretch:normal;font-size:266.66598511px;line-height:1.25;font-family:sans-serif;-inkscape-font-specification:'sans-serif, Normal';font-variant-ligatures:normal;font-variant-caps:normal;font-variant-numeric:normal;font-feature-settings:normal;text-align:start;letter-spacing:0px;word-spacing:0px;writing-mode:lr-tb;text-anchor:start;fill:#00b588;fill-opacity:1;stroke:none;stroke-width:1.46843004"
             id="path514"
             d="m 2373.4836,-3182.5886 q -42.0644,0 -66.9206,31.3571 -24.6651,31.357 -24.6651,85.4672 0,53.9188 24.6651,85.276 24.8562,31.3571 66.9206,31.3571 42.0644,0 66.5382,-31.3571 24.6651,-31.3572 24.6651,-85.276 0,-54.1102 -24.6651,-85.4672 -24.4738,-31.3571 -66.5382,-31.3571 z m 0,-31.3571 q 60.0374,0 95.9833,40.3436 35.9459,40.1524 35.9459,107.8378 0,67.4942 -35.9459,107.8378 -35.9459,40.1524 -95.9833,40.1524 -60.2286,0 -96.3657,-40.1524 -35.9459,-40.1524 -35.9459,-107.8378 0,-67.6854 35.9459,-107.8378 36.1371,-40.3436 96.3657,-40.3436 z"
             inkscape:connector-curvature="0" />
          <path
             style="font-style:normal;font-variant:normal;font-weight:normal;font-stretch:normal;font-size:266.66598511px;line-height:1.25;font-family:sans-serif;-inkscape-font-specification:'sans-serif, Normal';font-variant-ligatures:normal;font-variant-caps:normal;font-variant-numeric:normal;font-feature-settings:normal;text-align:start;letter-spacing:0px;word-spacing:0px;writing-mode:lr-tb;text-anchor:start;fill:#00b588;fill-opacity:1;stroke:none;stroke-width:1.46843004"
             id="path516"
             d="m 2779.5962,-3186.7951 v 40.726 q -19.5026,-18.1641 -41.682,-27.1506 -21.9882,-8.9865 -46.8444,-8.9865 -48.9477,0 -74.9511,30.0187 -26.0034,29.8274 -26.0034,86.4232 0,56.4044 26.0034,86.4232 26.0034,29.8274 74.9511,29.8274 24.8562,0 46.8444,-8.9864 22.1794,-8.9865 41.682,-27.1507 v 40.3436 q -20.2674,13.7665 -43.0204,20.6498 -22.5618,6.8833 -47.8004,6.8833 -64.8174,0 -102.1018,-39.5788 -37.2843,-39.7699 -37.2843,-108.4114 0,-68.8327 37.2843,-108.4115 37.2844,-39.7699 102.1018,-39.7699 25.621,0 48.1828,6.8833 22.753,6.6921 42.638,20.2673 z"
             inkscape:connector-curvature="0" />
          <path
             style="font-style:normal;font-variant:normal;font-weight:normal;font-stretch:normal;font-size:266.66598511px;line-height:1.25;font-family:sans-serif;-inkscape-font-specification:'sans-serif, Normal';font-variant-ligatures:normal;font-variant-caps:normal;font-variant-numeric:normal;font-feature-settings:normal;text-align:start;letter-spacing:0px;word-spacing:0px;writing-mode:lr-tb;text-anchor:start;fill:#00b588;fill-opacity:1;stroke:none;stroke-width:1.46843004"
             id="path518"
             d="m 2839.2512,-3208.7833 h 38.6228 v 285.4642 h -38.6228 z"
             inkscape:connector-curvature="0" />
          <path
             style="font-style:normal;font-variant:normal;font-weight:normal;font-stretch:normal;font-size:266.66598511px;line-height:1.25;font-family:sans-serif;-inkscape-font-specification:'sans-serif, Normal';font-variant-ligatures:normal;font-variant-caps:normal;font-variant-numeric:normal;font-feature-settings:normal;text-align:start;letter-spacing:0px;word-spacing:0px;writing-mode:lr-tb;text-anchor:start;fill:#00b588;fill-opacity:1;stroke:none;stroke-width:1.46843004"
             id="path520"
             d="m 2954.7371,-3208.7833 h 180.4945 v 32.5044 h -141.8718 v 84.5111 h 135.9445 v 32.5044 h -135.9445 v 103.4401 h 145.3134 v 32.5042 h -183.9361 z"
             inkscape:connector-curvature="0" />
          <path
             style="font-style:normal;font-variant:normal;font-weight:normal;font-stretch:normal;font-size:266.66598511px;line-height:1.25;font-family:sans-serif;-inkscape-font-specification:'sans-serif, Normal';font-variant-ligatures:normal;font-variant-caps:normal;font-variant-numeric:normal;font-feature-settings:normal;text-align:start;letter-spacing:0px;word-spacing:0px;writing-mode:lr-tb;text-anchor:start;fill:#00b588;fill-opacity:1;stroke:none;stroke-width:1.46843004"
             id="path522"
             d="m 3162.5734,-3208.7833 h 241.4879 v 32.5044 h -101.337 v 252.9598 h -38.814 v -252.9598 h -101.3369 z"
             inkscape:connector-curvature="0" />
          <path
             style="font-style:normal;font-variant:normal;font-weight:normal;font-stretch:normal;font-size:266.66598511px;line-height:1.25;font-family:sans-serif;-inkscape-font-specification:'sans-serif, Normal';font-variant-ligatures:normal;font-variant-caps:normal;font-variant-numeric:normal;font-feature-settings:normal;text-align:start;letter-spacing:0px;word-spacing:0px;writing-mode:lr-tb;text-anchor:start;fill:#00b588;fill-opacity:1;stroke:none;stroke-width:1.46843004"
             id="path524"
             d="m 3402.1492,-3208.7833 h 41.4908 l 79.1576,117.3979 78.5839,-117.3979 h 41.4908 l -100.9546,149.5199 v 135.9443 h -38.8139 v -135.9443 z"
             inkscape:connector-curvature="0" />
        </g>
      </g>
    </g>
  </g>
</svg>
